PathFileType	4	(X/Y/Z)	C:/Users/opensim2020/Desktop/walking_exp_matlab/subject01_walking11_straight_01.trc	
DataRate	CameraRate	NumFrames	NumMarkers	Units	OrigDataRate	OrigDataStartFrame	OrigNumFrames	
100.00	100.00	4	44	mm	100.00	1237	374	
Frame#	Time	LFHD			RFHD			LBHD			RBHD			C7			T10			CLAV			STRN			RBAK			LSHO			LUPA			LELB			LFRM			LWRA			LWRB			LFIN			RSHO			RUPA			RELB			RFRM			RWRA			RWRB			RFIN			LASI			RASI			LPSI			RPSI			LTHI			LKNE			LTIB			LANK			LHEE			LTOE			RTHI			RKNE			RTIB			RANK			RHEE			RTOE			*39			*40			*41			*42			*43			
		X1	Y1	Z1	X2	Y2	Z2	X3	Y3	Z3	X4	Y4	Z4	X5	Y5	Z5	X6	Y6	Z6	X7	Y7	Z7	X8	Y8	Z8	X9	Y9	Z9	X10	Y10	Z10	X11	Y11	Z11	X12	Y12	Z12	X13	Y13	Z13	X14	Y14	Z14	X15	Y15	Z15	X16	Y16	Z16	X17	Y17	Z17	X18	Y18	Z18	X19	Y19	Z19	X20	Y20	Z20	X21	Y21	Z21	X22	Y22	Z22	X23	Y23	Z23	X24	Y24	Z24	X25	Y25	Z25	X26	Y26	Z26	X27	Y27	Z27	X28	Y28	Z28	X29	Y29	Z29	X30	Y30	Z30	X31	Y31	Z31	X32	Y32	Z32	X33	Y33	Z33	X34	Y34	Z34	X35	Y35	Z35	X36	Y36	Z36	X37	Y37	Z37	X38	Y38	Z38	X39	Y39	Z39	X40	Y40	Z40	X41	Y41	Z41	X42	Y42	Z42	X43	Y43	Z43	X44	Y44	Z44	

328	3.270	1323.15906	702.45819	1681.42639	1432.63672	730.43390	1691.80908	1348.60852	597.91479	1617.12988	1465.01697	625.51678	1626.46533	1385.20801	592.16498	1434.96985	1399.99377	558.27441	1143.94226	1380.13098	736.87573	1370.13672	1376.71582	780.71307	1213.39746	1468.38708	540.90137	1243.94336	1222.38379	669.76794	1396.05615	1140.81360	648.19604	1209.86218	1141.65527	644.38293	1059.18494	1115.29443	690.28632	955.58917	1131.58984	778.14075	846.52679	1107.17505	723.62939	838.09991	1096.77429	777.43378	772.17084	1532.74182	677.92407	1400.86340	1639.42419	627.19849	1203.04651	1645.82471	632.69696	1078.38147	1678.57837	668.61212	963.65033	1660.99341	756.07977	852.64929	1701.16431	713.62177	851.26990	1698.78027	756.34430	775.79315	1290.77661	726.17981	936.39380	1507.15466	729.19104	935.50073	1347.48096	538.82648	950.19257	1493.01306	545.25244	948.82642	1243.85266	721.39728	606.51111	1266.25195	726.43860	472.97137	1263.46899	685.37024	286.07462	1327.08398	670.59680	72.30862	1383.02649	628.69415	42.21282	1310.76721	815.35284	40.46991	1576.70984	738.44757	607.12524	1559.35083	765.50781	452.18399	1564.55151	625.81989	345.26910	1521.97693	484.61990	195.56879	1467.36243	425.83386	192.25978	1529.25537	556.13519	73.03236	1412.54675	709.53241	1722.48621	-3101.88965	1973.13684	1023.44965	-3140.88184	2012.54431	1022.04114						 
329	3.280	1322.12476	708.57324	1681.90051	1431.50476	736.63983	1692.10498	1347.60254	603.85040	1617.72498	1463.97498	631.62085	1626.95825	1384.00769	597.79407	1435.35828	1398.94055	563.68756	1144.47754	1378.92615	742.51880	1370.57239	1375.41602	786.31171	1213.80603	1467.28113	546.54376	1244.43469	1221.22278	675.41046	1396.61951	1139.46375	654.50098	1210.54956	1139.89661	651.96558	1059.66406	1113.45044	698.72955	956.66486	1129.05542	788.05420	848.80023	1105.26953	733.34314	839.59882	1094.45386	787.94214	774.40295	1531.62097	683.61011	1401.34106	1638.10864	632.37335	1203.53027	1644.29895	637.65283	1078.82532	1677.06128	672.95288	963.94806	1659.61243	759.96814	852.53125	1699.80859	717.44501	851.44702	1697.17517	759.68115	775.48059	1289.07190	731.08136	936.65033	1505.44531	734.96619	936.52069	1346.81982	543.99799	950.56287	1492.70776	551.07867	949.92792	1243.09729	724.21198	606.20532	1265.54492	728.28705	472.62656	1263.31665	685.86823	286.02472	1327.08325	670.38818	72.02570	1382.92480	628.51392	42.11703	1310.73413	815.33527	40.38073	1575.25623	748.10376	608.71753	1557.71057	777.21582	454.59509	1562.99670	639.44641	345.44580	1520.43738	501.07089	192.67329	1465.90015	442.02780	187.53793	1527.75366	576.30743	72.41444	1411.43335	715.78412	1722.81189	-3101.84985	1973.21655	1023.65826	-3140.62793	2012.51855	1022.03314						 
330	3.290	1321.05334	714.60187	1682.22961	1430.41602	742.82440	1692.38257	1346.59290	609.81488	1618.22461	1462.97412	637.72491	1627.36890	1382.93225	603.51868	1435.79553	1397.85779	569.36780	1144.88940	1377.74927	748.20923	1370.98511	1374.04944	791.91815	1214.18701	1466.22412	552.16766	1244.94495	1220.08325	680.97174	1397.18176	1138.15027	660.66644	1211.17480	1138.54468	659.23975	1060.37122	1111.70703	707.03467	957.78894	1126.67505	797.84589	851.07007	1103.48572	743.01819	841.15588	1092.17615	798.34631	776.59137	1530.44861	689.32782	1401.75537	1636.89001	637.69910	1203.98743	1642.88257	642.64362	1079.29590	1675.68408	677.35327	964.25684	1658.28540	763.85260	852.36487	1698.29321	721.29633	851.43054	1695.62720	762.99304	775.19061	1287.51477	736.03375	936.83960	1503.72729	740.68317	937.40393	1346.14148	549.32928	950.87421	1491.92920	556.85590	950.31158	1242.31311	726.87842	605.91046	1264.78809	730.03699	472.33182	1263.18420	686.39215	285.95084	1327.14624	670.28912	72.00053	1383.00256	628.54907	42.14056	1310.63977	815.39313	40.23867	1573.77344	757.91339	610.62604	1555.94836	788.64722	456.88922	1561.11340	652.91266	344.89844	1518.77112	517.95605	188.93587	1464.68188	458.97467	182.48431	1526.35510	597.17090	71.45624	1410.24438	721.93793	1723.00781	-3101.95703	1973.06287	1023.79968	-3140.74536	2012.45215	1022.00018						 
331	3.300	1319.97192	720.48950	1682.53357	1429.37097	748.93195	1692.61682	1345.76868	616.06439	1618.64514	1461.96899	643.79260	1627.74731	1381.85120	609.30048	1436.23560	1396.77100	574.85388	1145.37024	1376.58325	753.89148	1371.39233	1372.78223	797.60059	1214.58289	1465.13586	557.87164	1245.36401	1218.93115	686.61017	1397.73572	1136.82007	666.70563	1211.83997	1137.01367	666.47577	1060.97412	1109.99817	715.32764	958.92242	1124.36853	807.51904	853.26660	1101.74976	752.67181	842.66388	1089.91516	808.56964	778.74890	1529.31714	695.11603	1402.11694	1635.70447	643.03058	1204.41406	1641.53040	647.65417	1079.69080	1674.31177	681.77490	964.51984	1656.97620	767.84424	852.22253	1696.89832	725.13782	851.44403	1694.12085	766.50433	774.91724	1286.06555	740.99408	936.97028	1502.12048	746.36450	938.19299	1345.47913	554.67444	951.14795	1491.41101	562.67377	950.93719	1241.42603	729.38660	605.58679	1264.20117	731.57452	472.04156	1263.02563	686.95776	285.95844	1327.16589	670.24103	72.04178	1383.01709	628.52649	42.15837	1310.56396	815.43066	40.11796	1572.06897	766.60876	612.30530	1553.76953	799.89075	458.88773	1559.23401	666.62683	343.88699	1517.12769	535.47235	184.71300	1463.15417	476.59528	176.29164	1525.06958	618.62909	70.23178	1409.41284	728.15314	1723.43408	-3101.98242	1973.10205	1023.30719	-3140.64746	2012.50049	1022.04950						 
